<svg height="512" viewBox="0 0 60 60" width="512" xmlns="http://www.w3.org/2000/svg"><g id="Page-1" fill="none" fill-rule="evenodd"><g id="038---Market-Stall" fill="rgb(0,0,0)" fill-rule="nonzero"><path id="Shape" d="m58.542 16.532c.933889-.9382433 1.4581232-2.208199 1.458-3.532-.002641-.8427643-.2454618-1.6673144-.7-2.377l-4.984-7.835c-1.0994693-1.73088877-3.0054461-2.78189023-5.056-2.788h-38.52c-2.04860987.00566975-3.95318412 1.05463673-5.053 2.783l-4.987 7.841c-.45466125.7092595-.69750119 1.5335276-.7 2.376.00075979 1.3285244.5287412 2.6024414 1.468 3.542.44337669.434393.96262381.7838341 1.532 1.031v20.427c-1.45943726-.0027654-2.70808095 1.0474881-2.95538732 2.485822-.24730638 1.4383339.57883984 2.8453257 1.95538732 3.330178v10.368c-1.37654748.4848523-2.2026937 1.8918441-1.95538732 3.330178.24730637 1.4383339 1.49595006 2.4885874 2.95538732 2.485822h54c1.4594373.0027654 2.7080809-1.0474881 2.9553873-2.485822s-.5788398-2.8453257-1.9553873-3.330178v-10.368c1.3765475-.4848523 2.2026937-1.8918441 1.9553873-3.330178s-1.49595-2.4885874-2.9553873-2.485822v-20.428c.5730969-.2497748 1.095691-.6022378 1.542-1.04zm-1.414-1.414c-.5648207.5637895-1.3299525.8809165-2.128.882h-3c-1.6568542 0-3-1.3431458-3-3h9c-.0001949.7933272-.3135769 1.5545005-.872 2.118zm-9.995 22.882.859-6.876c.0355602-.2845624-.05276-.570697-.2425222-.7857099-.1897623-.2150129-.4627022-.3382092-.7494778-.3382901h-6c-.2867756.0000809-.5597155.1232772-.7494778.3382901-.1897622.2150129-.2780824.5011475-.2425222.7857099l.859 6.876h-7.867v-4c0-1.1045695-.8954305-2-2-2h-11v-4h1c1.1045695 0 2-.8954305 2-2v-2c0-1.1045695-.8954305-2-2-2h-8c-1.1045695 0-2 .8954305-2 2v2c0 1.1045695.8954305 2 2 2h1v4h-1c-1.1045695 0-2 .8954305-2 2v4h-2v-20.1c1.2034999-.2520679 2.2717013-.9392774 3-1.93.9360662 1.2725895 2.4202258 2.0258005 4 2.03h4c1.5799521-.0044337 3.0641457-.758033 4-2.031.9358543 1.272967 2.4200479 2.0265663 4 2.031h4c1.5799521-.0044337 3.0641457-.758033 4-2.031.9358543 1.272967 2.4200479 2.0265663 4 2.031h4c1.5799521-.0044337 3.0641457-.758033 4-2.031.7282987.9907226 1.7965001 1.6779321 3 1.93v20.101zm-5-6h3.734l-.75 6h-2.234zm-23.133-6h-6v-2h8v2zm-3 2h2v4h-2zm-1 6h16v4h-18v-4zm32-21c0 1.6568542-1.3431458 3-3 3h-4c-1.6568542 0-3-1.3431458-3-3zm-12 0c0 1.6568542-1.3431458 3-3 3h-4c-1.6568542 0-3-1.3431458-3-3zm-22 0h10c0 1.6568542-1.3431458 3-3 3h-4c-1.6568542 0-3-1.3431458-3-3zm-5.623-9.148c.73212477-1.15011909 1.99963444-1.84813512 3.363-1.852h38.52c1.3654064.00393141 2.6344861.70407434 3.366 1.857l4.547 7.143h-8.5l-1.744-4.372c-.2054499-.51307252-.7879275-.7624499-1.301-.55699998-.5130725.20544993-.7624499.78792745-.557 1.30099998l1.452 3.628h-9.523v-2c0-.55228475-.4477153-1-1-1s-1 .44771525-1 1v2h-10v-2c0-.55228475-.4477153-1-1-1s-1 .44771525-1 1v2h-9.523l1.452-3.628c.1329028-.33189973.0786437-.70949053-.1423385-.9905376-.2209823-.28104707-.575115-.42285267-.929-.372s-.6537587.28663787-.7866615.6185376l-1.748 4.372h-8.5zm-5.37700603 9.148h9.00000603c0 1.6568542-1.34314575 3-3 3h-3c-.796138.0015971-1.56012802-.3139606-2.12308373-.8769163s-.87851334-1.3269457-.8769223-2.1230837zm3.00000603 5h2v20h-2zm51 36h-52v-10h52zm1 4h-54c-.55228475 0-1-.4477153-1-1s.44771525-1 1-1h54c.5522847 0 1 .4477153 1 1s-.4477153 1-1 1zm1-17c0 .5522847-.4477153 1-1 1h-54c-.55228475 0-1-.4477153-1-1s.44771525-1 1-1h54c.5522847 0 1 .4477153 1 1zm-3-3h-2v-20h2z"/></g></g></svg>